<svg width="96" height="96" viewBox="0 0 96 96" fill="none" xmlns="http://www.w3.org/2000/svg">
<path d="M96 48C96 21.4903 74.5097 0 48 0C21.4903 0 0 21.4903 0 48C0 74.5097 21.4903 96 48 96C74.5097 96 96 74.5097 96 48Z" fill="#010101"/>
<path d="M37.2138 27.831C40.281 28.2401 42.0626 30.1505 42.6063 33.5655C43.0151 36.1334 42.8202 38.7025 42.5423 41.2627C42.3276 43.2408 42.028 45.2094 41.7636 47.2022C41.8158 47.2286 41.8802 47.2913 41.9403 47.2873C44.8619 47.0939 47.7822 46.8778 50.7051 46.7099C51.3254 46.6744 51.4628 46.3727 51.5555 45.8333C52.255 41.766 53.3541 37.8198 55.1474 34.0981C56.0476 32.2298 57.1616 30.502 58.5937 29.0039C59.9292 27.607 61.4887 26.6324 63.4447 26.4436C65.8547 26.211 67.5827 27.2555 68.5387 29.5167C69.3862 31.5198 69.3102 33.6165 69.0722 35.705C68.3262 42.2459 64.5917 46.4966 58.8332 49.0178C57.5229 49.5915 57.1484 50.2881 57.1699 51.6056C57.2102 54.0762 57.0673 56.5533 57.6792 58.9806C57.7592 59.2975 57.8527 59.6129 57.9672 59.9183C58.8647 62.3145 60.6027 63.2926 63.0892 62.8138C64.4772 62.5462 65.6487 61.8486 66.6527 60.875C67.4417 60.1097 68.1747 59.2835 68.9117 58.4649C69.3542 57.9736 69.8372 57.5812 70.5277 57.7657C71.2392 57.9561 71.4307 58.578 71.5197 59.2247C71.6797 60.3837 71.5922 61.5527 70.8982 62.4934C69.0357 65.0176 66.7947 67.1133 63.7762 68.1223C58.6547 69.8339 53.8034 67.3734 51.8484 62.1052C50.7492 59.143 50.5904 56.0548 50.7431 52.9324C50.765 52.484 50.7971 52.0361 50.8271 51.5437C49.2389 51.7542 47.7229 51.9883 46.1994 52.1479C44.5704 52.3185 42.9353 52.4345 41.3008 52.5396C40.85 52.5686 40.6776 52.7391 40.5814 53.1855C39.7857 56.8797 38.9887 60.5741 38.1305 64.2538C37.91 65.199 37.5774 66.1532 37.1094 66.9957C36.2113 68.6136 34.5853 69.1333 32.8651 68.507C31.8507 68.1378 31.2076 67.3206 31.3259 66.0974C31.4658 64.6519 31.8062 63.2223 32.1162 61.7983C32.6896 59.1645 33.3053 56.5401 33.8996 53.9109C33.9531 53.6744 33.9796 53.4316 34.031 53.1159C33.5598 53.138 33.1685 53.1623 32.7768 53.1733C32.2806 53.1874 31.7821 53.2235 31.2881 53.1926C29.7702 53.0976 29.0049 52.4918 28.8802 51.3281C28.6921 49.5735 29.3046 48.367 30.7895 48.038C32.0391 47.7611 33.3452 47.7368 34.6291 47.6364C34.9901 47.6082 35.2269 47.5775 35.2971 47.1376C35.858 43.627 36.5107 40.1262 36.3732 36.5444C36.3531 36.0206 36.2746 35.4847 36.1278 34.9833C35.8442 34.0142 35.0588 33.4597 34.0587 33.4469C32.9746 33.4331 31.9522 33.7575 31.1418 34.4364C29.8844 35.49 28.7288 36.6703 27.5473 37.8153C27.2624 38.0915 27.0414 38.4369 26.7975 38.7556C26.0185 39.7732 25.4095 40.0592 24.6945 39.7373C23.9674 39.4098 23.4485 38.3332 23.6216 37.3471C23.725 36.7583 23.8407 36.1223 24.141 35.6263C26.7965 31.2405 30.5093 28.4273 35.6557 27.8292C36.1457 27.7723 36.6478 27.8237 37.2138 27.831ZM61.2787 33.2452C59.4787 36.884 58.5527 40.7827 57.8617 44.922C58.2052 44.7711 58.4227 44.6819 58.6347 44.5817C62.7207 42.6499 64.7587 39.3008 65.1197 34.8234C65.1962 33.8733 65.2317 32.8935 65.0812 31.9614C65.0022 31.4721 64.5597 30.8326 64.1337 30.6757C63.7627 30.5392 63.0652 30.8626 62.7242 31.2025C62.1687 31.7563 61.7862 32.4892 61.2787 33.2452Z" fill="#FCFCFC"/>
</svg>
